	<svg
						width="24"
						height="24"
						viewBox="0 0 32 32"
						fill="none"
						xmlns="http://www.w3.org/2000/svg"
					>
						<path
							d="M26.1916 23.4481C25.7847 24.3797 25.3029 25.2373 24.7448 26.0258C23.9841 27.1006 23.3612 27.8446 22.8811 28.2578C22.137 28.936 21.3397 29.2833 20.4859 29.303C19.873 29.303 19.1338 29.1302 18.2734 28.7796C17.4101 28.4306 16.6168 28.2578 15.8914 28.2578C15.1307 28.2578 14.3148 28.4306 13.4421 28.7796C12.568 29.1302 11.8639 29.3129 11.3256 29.331C10.5068 29.3656 9.69075 29.0084 8.87617 28.2578C8.35627 27.8084 7.70597 27.0381 6.92693 25.9467C6.09109 24.7813 5.40392 23.4299 4.86557 21.8893C4.28902 20.2251 4 18.6136 4 17.0535C4 15.2664 4.38968 13.7251 5.17021 12.4334C5.78363 11.3959 6.59971 10.5775 7.62109 9.9767C8.64246 9.37589 9.74607 9.06973 10.9345 9.05014C11.5848 9.05014 12.4376 9.24948 13.4974 9.64123C14.5541 10.0343 15.2327 10.2336 15.5302 10.2336C15.7526 10.2336 16.5064 10.0006 17.7842 9.53589C18.9926 9.10495 20.0125 8.92652 20.848 8.99681C23.112 9.17787 24.8129 10.0623 25.9441 11.6557C23.9193 12.8714 22.9177 14.5743 22.9376 16.7587C22.9559 18.4602 23.5788 19.8761 24.803 21.0004C25.3578 21.5222 25.9773 21.9255 26.6667 22.2119C26.5172 22.6415 26.3594 23.053 26.1916 23.4481ZM20.9992 3.20011C20.9992 4.53375 20.5075 5.77896 19.5275 6.93152C18.3448 8.30168 16.9143 9.09343 15.3631 8.9685C15.3433 8.8085 15.3318 8.64011 15.3318 8.46316C15.3318 7.18287 15.8943 5.81271 16.8931 4.69241C17.3917 4.12519 18.0259 3.65355 18.795 3.27731C19.5624 2.90669 20.2882 2.70172 20.9709 2.66663C20.9909 2.84491 20.9992 3.02321 20.9992 3.20009V3.20011Z"
							fill="white"
						/>
					</svg>