<svg width="24" height="24" viewBox="0 0 24 24" fill="none" xmlns="http://www.w3.org/2000/svg">
<path d="M15.245 5.74315L14.9653 6.27397L14.9653 6.27397L15.245 5.74315ZM15.729 6.02446L16.0517 5.51867L16.0517 5.51866L15.729 6.02446ZM17.3657 6.11977L17.6657 6.63939V6.63939L17.3657 6.11977ZM19.2512 6.62499L18.7316 6.92499V6.92499L19.2512 6.62499ZM20.2052 8.27735L20.7248 7.97735V7.97735L20.2052 8.27735ZM19.6587 10.3168L19.3587 9.79718L19.3587 9.79718L19.6587 10.3168ZM19.5766 10.3642L19.8766 10.8838L19.8766 10.8838L19.5766 10.3642ZM18.8448 12.0503L18.2455 12.0213V12.0213L18.8448 12.0503ZM19.6505 13.6784L19.3505 14.198L19.6505 13.6784ZM20.2004 15.7309L20.72 16.0309L20.2004 15.7309ZM19.4173 17.0872L19.937 17.3872L19.4173 17.0872ZM17.078 17.714L16.778 18.2337L17.078 17.714ZM16.9368 17.6325L17.2368 17.1129L16.9368 17.6325ZM15.3022 17.6638L15.587 18.1919H15.587L15.3022 17.6638ZM8.73803 17.5716L9.03756 17.0517L8.73803 17.5716ZM7.17969 17.5216L6.87969 17.002L6.87969 17.002L7.17969 17.5216ZM6.92739 17.6672L7.22739 18.1869L7.22739 18.1869L6.92739 17.6672ZM4.46018 17.0062L3.94056 17.3062H3.94056L4.46018 17.0062ZM3.81632 15.891L4.33593 15.591H4.33593L3.81632 15.891ZM4.43395 13.5859L4.13395 13.0663H4.13395L4.43395 13.5859ZM5.35325 11.7959L5.95321 11.7892L5.35325 11.7959ZM4.74287 10.5924L4.44287 11.112L4.44287 11.112L4.74287 10.5924ZM4.43725 10.4159L4.73725 9.8963H4.73725L4.43725 10.4159ZM3.81822 8.10568L3.29861 7.80568H3.29861L3.81822 8.10568ZM4.62286 6.71201L5.14247 7.01201H5.14247L4.62286 6.71201ZM6.64562 6.17001L6.94562 5.65039H6.94562L6.64562 6.17001ZM8.43267 6.05278L8.75934 6.55605L8.75934 6.55605L8.43267 6.05278ZM8.68432 5.89716L8.98862 6.41427L8.98862 6.41427L8.68432 5.89716ZM14.9528 4.3782C14.9528 3.28567 14.0671 2.4 12.9746 2.4V3.6C13.4044 3.6 13.7528 3.94841 13.7528 4.3782H14.9528ZM15.5247 5.21233C15.1602 5.02027 14.9528 4.69326 14.9528 4.3782H13.7528C13.7528 5.23136 14.2962 5.92145 14.9653 6.27397L15.5247 5.21233ZM16.0517 5.51866C15.8808 5.40956 15.7049 5.30732 15.5247 5.21233L14.9653 6.27397C15.116 6.35341 15.2631 6.43894 15.4062 6.53025L16.0517 5.51866ZM17.0657 5.60016C16.7908 5.75886 16.4011 5.74161 16.0517 5.51867L15.4062 6.53025C16.0478 6.93966 16.9226 7.06844 17.6657 6.63939L17.0657 5.60016ZM19.7708 6.32499C19.224 5.37783 18.0129 5.05331 17.0657 5.60016L17.6657 6.63939C18.0389 6.42392 18.5161 6.55179 18.7316 6.92499L19.7708 6.32499ZM20.7248 7.97735L19.7708 6.32499L18.7316 6.92499L19.6856 8.57735L20.7248 7.97735ZM19.9587 10.8364C20.9598 10.2585 21.3028 8.97841 20.7248 7.97735L19.6856 8.57735C19.9322 9.00446 19.7858 9.55059 19.3587 9.79718L19.9587 10.8364ZM19.8766 10.8838L19.9587 10.8364L19.3587 9.79718L19.2766 9.84459L19.8766 10.8838ZM19.4528 11.7188C19.4528 11.3399 19.6245 11.0294 19.8766 10.8838L19.2766 9.84459C18.5804 10.2466 18.2528 11.0026 18.2528 11.7188H19.4528ZM19.4441 12.0793C19.4499 11.9598 19.4528 11.8396 19.4528 11.7188H18.2528C18.2528 11.8202 18.2504 11.9211 18.2455 12.0213L19.4441 12.0793ZM19.9505 13.1587C19.6256 12.9712 19.4208 12.5616 19.4441 12.0793L18.2455 12.0213C18.2059 12.8399 18.5474 13.7343 19.3505 14.198L19.9505 13.1587ZM20.72 16.0309C21.3006 15.0252 20.9561 13.7393 19.9505 13.1587L19.3505 14.198C19.7821 14.4472 19.93 14.9992 19.6808 15.4309L20.72 16.0309ZM19.937 17.3872L20.72 16.0309L19.6808 15.4309L18.8977 16.7872L19.937 17.3872ZM16.778 18.2337C17.884 18.8722 19.2984 18.4933 19.937 17.3872L18.8977 16.7872C18.5905 17.3193 17.9101 17.5016 17.378 17.1944L16.778 18.2337ZM16.6368 18.1521L16.778 18.2337L17.378 17.1944L17.2368 17.1129L16.6368 18.1521ZM15.587 18.1919C15.9572 17.9923 16.3501 17.9866 16.6368 18.1521L17.2368 17.1129C16.5155 16.6965 15.6718 16.7828 15.0174 17.1357L15.587 18.1919ZM14.9528 19.1197C14.9528 18.7708 15.186 18.4082 15.587 18.1919L15.0174 17.1357C14.3266 17.5083 13.7528 18.228 13.7528 19.1197H14.9528ZM14.9528 19.2923V19.1197H13.7528V19.2923H14.9528ZM12.6451 21.6C13.9196 21.6 14.9528 20.5668 14.9528 19.2923H13.7528C13.7528 19.9041 13.2569 20.4 12.6451 20.4V21.6ZM11.3767 21.6H12.6451V20.4H11.3767V21.6ZM8.97157 19.1948C8.97157 20.5232 10.0484 21.6 11.3767 21.6V20.4C10.7111 20.4 10.1716 19.8604 10.1716 19.1948H8.97157ZM8.97157 18.9028V19.1948H10.1716V18.9028H8.97157ZM8.4385 18.0915C8.77961 18.288 8.97157 18.6036 8.97157 18.9028H10.1716C10.1716 18.0842 9.66504 17.4132 9.03756 17.0517L8.4385 18.0915ZM7.47969 18.0412C7.74028 17.8907 8.10238 17.8979 8.4385 18.0915L9.03756 17.0517C8.40877 16.6895 7.5835 16.5956 6.87969 17.002L7.47969 18.0412ZM7.22739 18.1869L7.47969 18.0412L6.87969 17.002L6.62739 17.1476L7.22739 18.1869ZM3.94056 17.3062C4.60499 18.457 6.07656 18.8513 7.22739 18.1869L6.62739 17.1476C6.05051 17.4807 5.31285 17.283 4.97979 16.7062L3.94056 17.3062ZM3.2967 16.191L3.94056 17.3062L4.97979 16.7062L4.33593 15.591L3.2967 16.191ZM4.13395 13.0663C3.0399 13.698 2.66505 15.0969 3.2967 16.191L4.33593 15.591C4.03565 15.0709 4.21385 14.4058 4.73395 14.1055L4.13395 13.0663ZM4.75329 11.8026C4.75958 12.3648 4.51995 12.8435 4.13395 13.0663L4.73395 14.1055C5.59089 13.6108 5.96299 12.6621 5.95321 11.7892L4.75329 11.8026ZM4.75282 11.7188C4.75282 11.7467 4.75298 11.7747 4.75329 11.8026L5.95321 11.7892C5.95295 11.7657 5.95282 11.7423 5.95282 11.7188H4.75282ZM4.44287 11.112C4.62238 11.2156 4.75282 11.4385 4.75282 11.7188H5.95282C5.95282 11.0852 5.65467 10.426 5.04287 10.0728L4.44287 11.112ZM4.13725 10.9355L4.44287 11.112L5.04287 10.0728L4.73725 9.8963L4.13725 10.9355ZM3.29861 7.80568C2.66591 8.90155 3.04138 10.3028 4.13725 10.9355L4.73725 9.8963C4.21533 9.59497 4.03651 8.9276 4.33784 8.40568L3.29861 7.80568ZM4.10324 6.41201L3.29861 7.80568L4.33784 8.40568L5.14247 7.01201L4.10324 6.41201ZM6.94562 5.65039C5.95041 5.07581 4.67783 5.41679 4.10324 6.41201L5.14247 7.01201C5.38569 6.59074 5.92436 6.44641 6.34562 6.68962L6.94562 5.65039ZM8.106 5.5495C7.70957 5.80682 7.26266 5.83343 6.94562 5.65039L6.34562 6.68962C7.14135 7.14904 8.07799 6.9983 8.75934 6.55605L8.106 5.5495ZM8.38001 5.38006C8.28735 5.43459 8.19599 5.49109 8.106 5.5495L8.75934 6.55605C8.83465 6.50717 8.9111 6.45989 8.98862 6.41427L8.38001 5.38006ZM8.97157 4.46915C8.97157 4.8087 8.75651 5.15849 8.38001 5.38006L8.98862 6.41427C9.64381 6.02871 10.1716 5.32667 10.1716 4.46915H8.97157ZM11.0407 2.4C9.89796 2.4 8.97157 3.32639 8.97157 4.46915H10.1716C10.1716 3.98913 10.5607 3.6 11.0407 3.6V2.4ZM12.9746 2.4H11.0407V3.6H12.9746V2.4ZM14.4939 12C14.4939 13.3773 13.3774 14.4937 12.0001 14.4937V15.6938C14.0401 15.6938 15.6939 14.04 15.6939 12H14.4939ZM12.0001 9.50625C13.3774 9.50625 14.4939 10.6227 14.4939 12H15.6939C15.6939 9.96 14.0401 8.30625 12.0001 8.30625V9.50625ZM9.50637 12C9.50637 10.6227 10.6229 9.50625 12.0001 9.50625V8.30625C9.96012 8.30625 8.30637 9.96 8.30637 12H9.50637ZM12.0001 14.4937C10.6229 14.4937 9.50637 13.3773 9.50637 12H8.30637C8.30637 14.04 9.96012 15.6938 12.0001 15.6938V14.4937Z" fill="#E4E4E7"/>
</svg>
