	<svg
						width="24"
						height="24"
						viewBox="0 0 24 24"
						fill="none"
						xmlns="http://www.w3.org/2000/svg"
					>
						<g id="Group 353">
							<path
								id="vector"
								d="M12.2446 4.63995C14.5438 4.63995 16.0948 5.61328 16.9792 6.42666L20.435 3.11999C18.3126 1.18667 15.5506 0 12.2446 0C7.45542 0 3.31937 2.6933 1.30579 6.61326L5.26495 9.62662C6.25823 6.7333 9.0065 4.63995 12.2446 4.63995Z"
								fill="#EB4335"
							/>
							<path
								id="vector_2"
								d="M5.27883 14.3733C5.02034 13.6267 4.87074 12.8266 4.87074 12C4.87074 11.1733 5.02034 10.3733 5.26523 9.62666L5.25839 9.46764L1.4313 6.55493L1.30608 6.6133C0.476193 8.23998 0 10.0667 0 12C0 13.9333 0.476193 15.7599 1.30608 17.3866L5.27883 14.3733Z"
								fill="#FBBC05"
							/>
							<path
								id="vector_3"
								d="M12.2445 24C15.5506 24 18.326 22.9333 20.3533 21.0933L16.4893 18.1599C15.4554 18.8666 14.0676 19.3599 12.2445 19.3599C9.00646 19.3599 6.2582 17.2666 5.27852 14.3733L5.13493 14.3852L1.35522 17.2519L1.30579 17.3866C3.31936 21.3066 7.45539 24 12.2445 24Z"
								fill="#34A853"
							/>
							<path
								id="vector_4"
								d="M24.0005 12.2663C24.0005 11.2796 23.9188 10.5596 23.742 9.81299H12.2455V14.2663H18.9937C18.8577 15.373 18.123 17.0396 16.4903 18.1596L16.4674 18.3086L20.1024 21.0683L20.3543 21.0929C22.6672 18.9996 24.0005 15.9196 24.0005 12.2663Z"
								fill="#4285F4"
							/>
						</g>
					</svg>