		<svg
						width="28"
						height="26"
						viewBox="0 0 28 26"
						fill="none"
						xmlns="http://www.w3.org/2000/svg"
					>
						<g clip-path="url(#clip0_65_711)">
							<path
								d="M27.9001 13.6249C27.9015 13.4148 27.7924 13.2192 27.6125 13.1093H27.6093L27.598 13.1031L18.2422 7.59057C18.2018 7.5634 18.1599 7.53857 18.1166 7.5162C17.7554 7.3307 17.3263 7.3307 16.965 7.5162C16.9218 7.53859 16.8799 7.5634 16.8395 7.59057L7.48368 13.1031L7.47238 13.1093C7.18644 13.2863 7.09878 13.6605 7.27659 13.9452C7.32898 14.029 7.40115 14.0989 7.48682 14.1487L16.8426 19.6612C16.8832 19.6881 16.9251 19.713 16.9682 19.7356C17.3294 19.9211 17.7586 19.9211 18.1198 19.7356C18.1629 19.713 18.2048 19.6881 18.2454 19.6612L27.6012 14.1487C27.7881 14.0402 27.9022 13.8403 27.9001 13.6249Z"
								fill="#0A2767"
							/>
							<path
								d="M8.57427 9.94437H14.7139V15.5462H8.57427V9.94437ZM26.6442 4.25V1.68749C26.6589 1.04681 26.1494 0.515352 25.5058 0.5H9.57328C8.92962 0.515352 8.42014 1.04681 8.43488 1.68749V4.25L17.8535 6.74999L26.6442 4.25Z"
								fill="#0364B8"
							/>
							<path d="M8.43494 4.25H14.714V9.87499H8.43494V4.25Z" fill="#0078D4" />
							<path
								d="M20.9931 4.25H14.714V9.87499L20.9931 15.5H26.6442V9.87499L20.9931 4.25Z"
								fill="#28A8EA"
							/>
							<path d="M14.714 9.875H20.993V15.5H14.714V9.875Z" fill="#0078D4" />
							<path d="M14.714 15.5H20.993V21.125H14.714V15.5Z" fill="#0364B8" />
							<path d="M8.57434 15.5463H14.714V20.6388H8.57434V15.5463Z" fill="#14447D" />
							<path d="M20.993 15.5H26.6442V21.125H20.993V15.5Z" fill="#0078D4" />
							<path
								d="M27.6124 14.1144L27.6005 14.1206L18.2447 19.3581C18.2039 19.3831 18.1624 19.4069 18.1191 19.4281C17.9602 19.5034 17.7876 19.546 17.6117 19.5531L17.1006 19.2556C17.0574 19.234 17.0155 19.21 16.975 19.1837L7.49365 13.7975H7.48926L7.17908 13.625V24.2275C7.18391 24.9349 7.76377 25.5045 8.47444 25.5H26.6247C26.6354 25.5 26.6448 25.495 26.6561 25.495C26.8062 25.4854 26.9542 25.4547 27.0956 25.4037C27.1567 25.378 27.2157 25.3475 27.2721 25.3125C27.3141 25.2888 27.3863 25.2369 27.3863 25.2369C27.708 25 27.8984 24.6258 27.9 24.2275V13.625C27.8998 13.8278 27.7899 14.0148 27.6124 14.1144Z"
								fill="url(#paint0_linear_65_711)"
							/>
							<path
								opacity="0.5"
								d="M27.3976 13.5832V14.2332L17.6149 20.9375L7.48673 13.8019C7.48673 13.7985 7.48391 13.7957 7.48044 13.7957L6.55115 13.2394V12.7707L6.93417 12.7644L7.74416 13.2269L7.76299 13.2332L7.83206 13.2769C7.83206 13.2769 17.3511 18.6832 17.3762 18.6957L17.7404 18.9081C17.7718 18.8956 17.8032 18.8832 17.8409 18.8706C17.8597 18.8581 27.2909 13.5769 27.2909 13.5769L27.3976 13.5832Z"
								fill="#0A2767"
							/>
							<path
								d="M27.6124 14.1144L27.6005 14.1212L18.2447 19.3587C18.2038 19.3837 18.1624 19.4075 18.1191 19.4287C17.7557 19.6054 17.3308 19.6054 16.9675 19.4287C16.9245 19.4075 16.8826 19.3842 16.8419 19.3587L7.48612 14.1212L7.47482 14.1144C7.29419 14.0169 7.18095 13.8295 7.17908 13.625V24.2275C7.18357 24.9348 7.76323 25.5045 8.47376 25.5C8.47376 25.5 8.47379 25.5 8.47382 25.5H26.6052C27.3158 25.5045 27.8955 24.9348 27.9 24.2276C27.9 24.2276 27.9 24.2275 27.9 24.2275V13.625C27.8998 13.8278 27.7899 14.0148 27.6124 14.1144Z"
								fill="#1490DF"
							/>
							<path
								opacity="0.1"
								d="M18.381 19.2812L18.2409 19.3594C18.2004 19.3851 18.1584 19.4087 18.1154 19.43C17.9611 19.5054 17.7933 19.5496 17.6218 19.56L21.1814 23.75L27.3908 25.2394C27.5609 25.1114 27.6963 24.9432 27.7845 24.75L18.381 19.2812Z"
								fill="black"
							/>
							<path
								opacity="0.05"
								d="M19.0151 18.9263L18.2409 19.3594C18.2004 19.3851 18.1584 19.4087 18.1154 19.43C17.9611 19.5054 17.7933 19.5496 17.6218 19.56L19.2895 24.1369L27.3927 25.2375C27.7119 24.9989 27.8998 24.6248 27.9 24.2275V24.0906L19.0151 18.9263Z"
								fill="black"
							/>
							<path
								d="M8.4914 25.5H26.6034C26.8821 25.5014 27.1539 25.4138 27.3788 25.25L17.1 19.2569C17.0568 19.2353 17.0149 19.2113 16.9744 19.185L7.49302 13.7987H7.48863L7.17908 13.625V24.1912C7.17837 24.9134 7.76591 25.4993 8.4914 25.5Z"
								fill="#28A8EA"
							/>
							<path
								opacity="0.1"
								d="M15.9698 6.64562V19.9769C15.9687 20.4443 15.6831 20.8644 15.2477 21.0394C15.1128 21.0971 14.9675 21.1268 14.8207 21.1269H7.17908V6.12499H8.43489V5.5H14.8207C15.455 5.50239 15.9684 6.01421 15.9698 6.64562Z"
								fill="black"
							/>
							<path
								opacity="0.2"
								d="M15.3419 7.27067V20.6019C15.3434 20.7529 15.3113 20.9023 15.2477 21.0394C15.0733 21.4672 14.6566 21.7479 14.1928 21.75H7.17908V6.12505H14.1928C14.375 6.12323 14.5545 6.16847 14.714 6.25631C15.0989 6.44933 15.3417 6.84168 15.3419 7.27067Z"
								fill="black"
							/>
							<path
								opacity="0.2"
								d="M15.3419 7.27067V19.3519C15.3388 19.983 14.8268 20.4946 14.1928 20.5H7.17908V6.12505H14.1928C14.375 6.12323 14.5545 6.16847 14.714 6.25631C15.0989 6.44933 15.3417 6.84168 15.3419 7.27067Z"
								fill="black"
							/>
							<path
								opacity="0.2"
								d="M14.714 7.27062V19.3519C14.7133 19.984 14.1999 20.4969 13.5649 20.5H7.17908V6.125H13.5649C14.1998 6.12534 14.7143 6.63798 14.7139 7.27C14.714 7.27021 14.714 7.27041 14.714 7.27062Z"
								fill="black"
							/>
							<path
								d="M2.05097 6.125H13.563C14.1987 6.125 14.714 6.63792 14.714 7.27062V18.7294C14.714 19.3621 14.1987 19.875 13.563 19.875H2.05097C1.41532 19.875 0.900024 19.3621 0.900024 18.7294V7.27062C0.900024 6.63792 1.41533 6.125 2.05097 6.125Z"
								fill="url(#paint1_linear_65_711)"
							/>
							<path
								d="M4.49736 10.9299C4.78103 10.3284 5.2389 9.82491 5.8122 9.48432C6.44709 9.12251 7.16997 8.94214 7.90125 8.96306C8.57902 8.94843 9.24781 9.11944 9.83457 9.45743C10.3863 9.7849 10.8306 10.2647 11.1136 10.8387C11.4218 11.4711 11.5755 12.1671 11.5619 12.8699C11.5769 13.6044 11.4188 14.3322 11.1004 14.9949C10.8107 15.5894 10.3522 16.0863 9.78183 16.4243C9.17245 16.7726 8.47882 16.9481 7.7763 16.9318C7.08405 16.9484 6.40051 16.7755 5.80027 16.4318C5.24381 16.1039 4.79392 15.6235 4.50427 15.048C4.19421 14.4247 4.03876 13.7366 4.05093 13.0412C4.03801 12.3129 4.19063 11.5912 4.49736 10.9299ZM5.89884 14.3237C6.05009 14.704 6.30657 15.0338 6.63852 15.2749C6.97663 15.5101 7.38149 15.6315 7.79386 15.6212C8.23302 15.6385 8.6659 15.513 9.02707 15.2637C9.35482 15.0233 9.60456 14.6926 9.74539 14.3124C9.90283 13.8878 9.98052 13.4381 9.97458 12.9856C9.97944 12.5287 9.90641 12.0743 9.75857 11.6418C9.628 11.2513 9.38631 10.9069 9.06286 10.6506C8.71074 10.3895 8.27903 10.257 7.84032 10.2756C7.41902 10.2647 7.00509 10.387 6.65798 10.6249C6.32041 10.867 6.05907 11.1998 5.90449 11.5843C5.56159 12.4656 5.5598 13.4423 5.89946 14.3249L5.89884 14.3237Z"
								fill="white"
							/>
							<path d="M20.993 4.25H26.6442V9.87499H20.993V4.25Z" fill="#50D9FF" />
						</g>
						<defs>
							<linearGradient
								id="paint0_linear_65_711"
								x1="17.5395"
								y1="13.625"
								x2="17.5395"
								y2="25.5"
								gradientUnits="userSpaceOnUse"
							>
								<stop stop-color="#35B8F1" />
								<stop offset="1" stop-color="#28A8EA" />
							</linearGradient>
							<linearGradient
								id="paint1_linear_65_711"
								x1="3.29979"
								y1="5.22983"
								x2="12.2516"
								y2="20.8061"
								gradientUnits="userSpaceOnUse"
							>
								<stop stop-color="#1784D9" />
								<stop offset="0.5" stop-color="#107AD5" />
								<stop offset="1" stop-color="#0A63C9" />
							</linearGradient>
							<clipPath id="clip0_65_711">
								<rect width="27" height="25" fill="white" transform="translate(0.900024 0.5)" />
							</clipPath>
						</defs>
					</svg>