<svg width="102" height="24" viewBox="0 0 102 24" fill="none" xmlns="http://www.w3.org/2000/svg">
<path d="M2.40012 19.2L2.40004 6.80437C2.40003 5.97952 3.34241 5.50935 4.00143 6.0054L12.0001 12.0262L19.9985 6.00541C20.6576 5.50935 21.5999 5.97951 21.5999 6.80436L21.6 19.2" stroke="#CBC2FF" stroke-width="2.25" stroke-linecap="square"/>
<path d="M5.99988 19.1998V13.1998L11.9999 17.6998L17.9999 13.1998V19.1998" stroke="#CBC2FF" stroke-width="2.25" stroke-linecap="square"/>
<path d="M29.088 19V7.8H30.848L34.816 17.096L38.736 7.8H40.464V19H39.104V10.168L35.392 19H34.16L30.448 10.168V19H29.088ZM49.6589 17.8H50.0749V19H49.3549C48.8322 19 48.4589 18.8933 48.2349 18.68C48.0109 18.4667 47.8935 18.152 47.8829 17.736C47.2535 18.6427 46.3415 19.096 45.1469 19.096C44.2402 19.096 43.5095 18.8827 42.9549 18.456C42.4109 18.0293 42.1389 17.448 42.1389 16.712C42.1389 15.8907 42.4162 15.2613 42.9709 14.824C43.5362 14.3867 44.3522 14.168 45.4189 14.168H47.8189V13.608C47.8189 13.0747 47.6375 12.6587 47.2749 12.36C46.9229 12.0613 46.4269 11.912 45.7869 11.912C45.2215 11.912 44.7522 12.04 44.3789 12.296C44.0162 12.5413 43.7922 12.872 43.7069 13.288H42.3949C42.4909 12.488 42.8429 11.864 43.4509 11.416C44.0695 10.968 44.8695 10.744 45.8509 10.744C46.8962 10.744 47.7015 11 48.2669 11.512C48.8429 12.0133 49.1309 12.7387 49.1309 13.688V17.256C49.1309 17.4693 49.1682 17.6133 49.2429 17.688C49.3282 17.7627 49.4669 17.8 49.6589 17.8ZM47.8189 15.672V15.272H45.2909C44.0749 15.272 43.4669 15.7253 43.4669 16.632C43.4669 17.0373 43.6269 17.3627 43.9469 17.608C44.2669 17.8533 44.6989 17.976 45.2429 17.976C46.0429 17.976 46.6722 17.768 47.1309 17.352C47.5895 16.9253 47.8189 16.3653 47.8189 15.672ZM52.3635 9.224C52.2035 9.384 52.0008 9.464 51.7555 9.464C51.5102 9.464 51.3075 9.384 51.1475 9.224C50.9875 9.064 50.9075 8.86133 50.9075 8.616C50.9075 8.37067 50.9875 8.168 51.1475 8.008C51.3075 7.848 51.5102 7.768 51.7555 7.768C52.0008 7.768 52.2035 7.848 52.3635 8.008C52.5235 8.168 52.6035 8.37067 52.6035 8.616C52.6035 8.86133 52.5235 9.064 52.3635 9.224ZM51.0835 19V10.84H52.3955V19H51.0835ZM54.1929 19V7.8H55.5049V19H54.1929ZM57.4943 19V7.8H59.2543L63.2223 17.096L67.1423 7.8H68.8703V19H67.5103V10.168L63.7983 19H62.5663L58.8543 10.168V19H57.4943ZM74.6091 19.096C73.3931 19.096 72.4118 18.712 71.6651 17.944C70.9291 17.176 70.5611 16.168 70.5611 14.92C70.5611 13.6827 70.9185 12.68 71.6331 11.912C72.3478 11.1333 73.2811 10.744 74.4331 10.744C75.5958 10.744 76.5238 11.0907 77.2171 11.784C77.9105 12.4667 78.2731 13.4107 78.3051 14.616C78.3051 14.7333 78.2945 14.92 78.2731 15.176H71.9371V15.288C71.9585 16.0773 72.1985 16.7173 72.6571 17.208C73.1265 17.688 73.7451 17.928 74.5131 17.928C75.0998 17.928 75.5958 17.784 76.0011 17.496C76.4171 17.1973 76.6945 16.7867 76.8331 16.264H78.1611C78.0011 17.096 77.6011 17.7787 76.9611 18.312C76.3211 18.8347 75.5371 19.096 74.6091 19.096ZM72.0171 14.088H76.8971C76.8331 13.3947 76.5825 12.856 76.1451 12.472C75.7078 12.088 75.1425 11.896 74.4491 11.896C73.8305 11.896 73.2865 12.0987 72.8171 12.504C72.3478 12.9093 72.0811 13.4373 72.0171 14.088ZM88.9062 10.744C89.8236 10.744 90.5649 11.032 91.1303 11.608C91.7063 12.184 91.9943 13.08 91.9943 14.296V19H90.6823V14.376C90.6823 13.5867 90.5116 12.984 90.1703 12.568C89.8396 12.152 89.3649 11.944 88.7463 11.944C88.0636 11.944 87.5249 12.184 87.1302 12.664C86.7463 13.144 86.5543 13.8 86.5543 14.632V19H85.2423V14.376C85.2423 13.5867 85.0716 12.984 84.7303 12.568C84.3889 12.152 83.9036 11.944 83.2743 11.944C82.6129 11.944 82.0849 12.2 81.6903 12.712C81.3063 13.2133 81.1143 13.8747 81.1143 14.696V19H79.8023V10.84H80.9383L81.1143 11.96C81.7009 11.1493 82.4956 10.744 83.4983 10.744C84.0849 10.744 84.6023 10.8773 85.0503 11.144C85.5089 11.4 85.8503 11.784 86.0743 12.296C86.6609 11.2613 87.6049 10.744 88.9062 10.744ZM100.256 17.944C99.5088 18.712 98.5382 19.096 97.3435 19.096C96.1488 19.096 95.1728 18.712 94.4155 17.944C93.6688 17.1653 93.2955 16.1573 93.2955 14.92C93.2955 13.6827 93.6688 12.68 94.4155 11.912C95.1728 11.1333 96.1488 10.744 97.3435 10.744C98.5382 10.744 99.5088 11.1333 100.256 11.912C101.013 12.68 101.392 13.6827 101.392 14.92C101.392 16.1573 101.013 17.1653 100.256 17.944ZM95.3915 17.08C95.8928 17.6453 96.5435 17.928 97.3435 17.928C98.1435 17.928 98.7942 17.6453 99.2955 17.08C99.7968 16.5147 100.048 15.7947 100.048 14.92C100.048 14.0453 99.7968 13.3253 99.2955 12.76C98.7942 12.1947 98.1435 11.912 97.3435 11.912C96.5435 11.912 95.8928 12.1947 95.3915 12.76C94.8902 13.3253 94.6395 14.0453 94.6395 14.92C94.6395 15.7947 94.8902 16.5147 95.3915 17.08Z" fill="#EDEDF0"/>
</svg>
